<?xml version="1.0" encoding="UTF-8"?>
<svg id="Layer_2" data-name="Layer 2" xmlns="http://www.w3.org/2000/svg" viewBox="0 0 1105.26 180.62">
  <defs>
    <style>
      .cls-1 {
        fill: #fff;
        stroke-width: 0px;
      }
    </style>
  </defs>
  <g id="Layer_1-2" data-name="Layer 1">
    <g>
      <path class="cls-1" d="M52.44,51.68c-1.29-5.01-.96-9.99.34-14.94.18-.69.55-1.34.83-2,.2,0,.39,0,.59,0,.55,1.76,1.05,3.54,1.66,5.28,3.14,8.93,7.66,17.13,13.71,24.39,3.56,4.27,8.57,6.64,13.62,8.74,11.47,4.79,22.78,9.88,33.49,16.21.81.48,1.51,1.17,2.18,1.85,2.17,2.22,4.22,4.57,6.5,6.67.61.56,1.99.76,2.81.49.72-.23,1.44-1.27,1.65-2.08.58-2.22.79-2.48,2.95-1.91,1.46.38,2.74.45,3.93-.79.33-.34,1.66-.35,1.96-.01,6.34,7.28,15.55,9.14,23.84,12.7,7.31,3.14,14.75,5.96,22.06,9.09,1.95.83,3.63,2.27,5.76,3.63-2.3.82-4.03,1.46-5.77,2.06-1.63.56-3.28.95-4.24,2.71-.59,1.09-1.72,1.4-3.03.8-4.76-2.16-9.59-4.18-14.33-6.4-6.38-3-12.71-6.12-19.04-9.24-1.44-.71-2.82-1.58-4.15-2.5-2.14-1.48-3.77-1.08-4.87,1.24-.82,1.74-1.69,3.25-3.94,3.75-2.75.61-5.39,1.74-8.24,2.7-2.45-3.58-5.13-6.88-7.12-10.55-3.7-6.82-9.51-10.81-16.57-13.19-5.86-1.97-11.77-3.93-17.8-5.25-5.5-1.21-11.3-1.43-16.56.99-2.64,1.22-5.13,1.53-7.86,1.39-.7-.04-1.44.04-2.12.23-3.48.97-4.45,4.43-1.97,7.06,2.02,2.14,4.72,2.82,7.49,3.33,3.48.64,6.63-.21,9.65-1.88.49-.27,1.12-.31,1.68-.45.16.2.32.4.48.6-1,1.24-1.82,2.73-3.05,3.69-6.44,5.06-17.16,5.84-24.09,1.36-4.33-2.81-6.66-6.75-7.25-11.79-.38-3.19,2.1-7.05,5.5-8.65.53-.25,1.03-.6,1.59-.71,3.48-.69,4.31-3.08,4.53-6.25.21-3.08.87-6.13,1.43-9.17.28-1.52.11-2.76-1.22-3.77-3.04-2.3-5.98-4.73-9.05-6.99-.54-.4-1.59-.53-2.24-.31-7.16,2.41-14.32,4.82-21.39,7.48-1.06.4-1.92,1.98-2.39,3.2-2.87,7.49-4.94,15.21-6.12,23.16-.11.76-.27,1.52-.37,2.29-.04.25.02.51.05,1.35,3.82-7.05,8.95-12.42,14.78-16.99,5.79-4.53,12.57-6.94,19.86-7.54.07.18.14.37.21.55-3.29,2.25-6.72,4.33-9.83,6.8-3.07,2.43-5.81,5.26-8.58,8.1,3.33-.34,6.38-1.97,9.84-1.37-12.7,8.84-19.68,21.36-24.26,36.06-.88-.87-2.07-1.67-2.74-2.77C2.58,106.47-.77,98.42.15,89.19c.65-6.57,2.03-12.99,4.15-19.25,1.26-3.74,2.59-7.45,3.73-11.22.55-1.82,1.52-2.67,3.41-3.09,3.5-.79,6.93-1.93,10.56-2.97C12.64,35.67,13.25,17.98,18.04,0h.78c.38,8.54.73,17.09,3.51,25.35,0-2.92-.25-5.86.06-8.75.43-4.03,1.26-8.02,1.99-12.01.07-.38.61-.67.94-1.01.42.49,1.07.91,1.22,1.47.57,2.16.98,4.36,1.45,6.53,2.73-2.41,5.01-4.89,7.73-6.71,2.6-1.74,5.19-3.92,9.29-4.01-3.05,3.91-4.07,8.04-4.89,12.19-1.29,6.48-2.02,13.03-.66,19.6,1,4.87,3.63,8.98,6.6,12.82,1.8,2.33,4.06,4.3,6.12,6.43.12.14.24.28.36.42-.03-.22-.06-.43-.09-.65Z"/>
      <path class="cls-1" d="M256.39,176.83c1.13-2.12,2.07-3.78,2.91-5.48,1.57-3.17,1.94-6.16-.13-9.48-2.59-4.16-4.49-8.75-7.06-12.92-.85-1.38-2.75-2.23-4.33-3.02-10.66-5.32-21.75-9.58-33.06-13.27-2.39-.78-4.86-1.31-7.31-1.89-3.11-.73-5.72,1.07-8.54,1.78-.94.24-1.81.69-2.74.95-1.75.49-3.42.86-3.94,3.12-.19.84-1.44,1.72-2.39,2.04-2,.67-4.13,1.33-6.2,1.33-1.46,0-3.08-.88-4.34-1.77-3.2-2.28-6.24-4.79-9.34-7.22-.18-.14-.26-.42-.61-1,1.7.08,3.13.14,4.56.21,1.22.06,2.46.28,3.67.17,1.81-.15,2.16-.9,1.92-2.63-.09-.62.4-1.4.81-1.97.27-.37.87-.57,1.36-.69,6.62-1.71,13.21-3.61,19.91-4.98,2.27-.46,4.96.02,7.22.78,9.17,3.11,18.32,6.31,27.33,9.85,7.62,2.99,15.01,6.57,22.56,9.74,2.08.87,2.78,2.68,3.63,4.33,2.78,5.42,4.92,11.12,5.83,17.16.66,4.38-1.09,8.15-4.36,11.07-1.43,1.27-3.18,2.2-4.85,3.17-.6.35-1.39.36-2.51.62Z"/>
      <path class="cls-1" d="M125.16,74.19c.56-1.73,1.06-3.43,1.68-5.08.14-.39.68-.63,1.03-.94.28.45.78.89.8,1.35.27,6.75,2.88,12.61,6.53,18.15.65.99.79,2.31,1.17,3.48-1.5.37-3.07,1.22-4.49,1.02-2.72-.37-4.5-2.52-5.94-4.65-4.84-7.2-9.04-14.75-11.51-23.13-1.38-4.69-.48-9.17,1.48-13.51.13-.28.54-.43.82-.64.27.39.71.75.79,1.18.52,2.72.91,5.47,1.44,8.19.93,4.76,2.17,9.42,4.99,13.48.22.32.47.62.74.89.12.12.32.15.46.2Z"/>
      <path class="cls-1" d="M164.07,131.11c2.19-.4,3.31,1.27,4.6,2.46.79.73,1.37,1.69,2.05,2.55-1.04.17-2.09.3-3.12.52-2.14.45-4.32.8-6.41,1.45-4.93,1.53-9.89,3-14.66,4.95-1.84.75-3.36,2.57-4.71,4.17-2.36,2.8-4.45,5.82-6.71,8.71-.3.39-.91.54-1.37.8-.22-.48-.7-1-.63-1.43.76-4.86,2.08-9.56,4.34-13.96,1.24-2.41,3.67-3.25,5.89-4.1,6.02-2.29,11.96-4.86,18.42-5.78.76-.11,1.52-.22,2.29-.33Z"/>
    </g>
    <g>
      <path class="cls-1" d="M1052.81,55.47c1.29-5.01.96-9.99-.34-14.94-.18-.69-.55-1.34-.83-2-.2,0-.39,0-.59,0-.55,1.76-1.05,3.54-1.66,5.28-3.14,8.93-7.66,17.13-13.71,24.39-3.56,4.27-8.57,6.64-13.62,8.74-11.47,4.79-22.78,9.88-33.49,16.21-.81.48-1.51,1.17-2.18,1.85-2.17,2.22-4.22,4.57-6.5,6.67-.61.56-1.99.76-2.81.49-.72-.23-1.44-1.27-1.65-2.08-.58-2.22-.79-2.48-2.95-1.91-1.46.38-2.74.45-3.93-.79-.33-.34-1.66-.35-1.96-.01-6.34,7.28-15.55,9.14-23.84,12.7-7.31,3.14-14.75,5.96-22.06,9.09-1.95.83-3.63,2.27-5.76,3.63,2.3.82,4.03,1.46,5.77,2.06,1.63.56,3.28.95,4.24,2.71.59,1.09,1.72,1.4,3.03.8,4.76-2.16,9.59-4.18,14.33-6.4,6.38-3,12.71-6.12,19.04-9.24,1.44-.71,2.82-1.58,4.15-2.5,2.14-1.48,3.77-1.08,4.87,1.24.82,1.74,1.69,3.25,3.94,3.75,2.75.61,5.39,1.74,8.24,2.7,2.45-3.58,5.13-6.88,7.12-10.55,3.7-6.82,9.51-10.81,16.57-13.19,5.86-1.97,11.77-3.93,17.8-5.25,5.5-1.21,11.3-1.43,16.56.99,2.64,1.22,5.13,1.53,7.86,1.39.7-.04,1.44.04,2.12.23,3.48.97,4.45,4.43,1.97,7.06-2.02,2.14-4.72,2.82-7.49,3.33-3.48.64-6.63-.21-9.65-1.88-.49-.27-1.12-.31-1.68-.45-.16.2-.32.4-.48.6,1,1.24,1.82,2.73,3.05,3.69,6.44,5.06,17.16,5.84,24.09,1.36,4.33-2.81,6.66-6.75,7.25-11.79.38-3.19-2.1-7.05-5.5-8.65-.53-.25-1.03-.6-1.59-.71-3.48-.69-4.31-3.08-4.53-6.25-.21-3.08-.87-6.13-1.43-9.17-.28-1.52-.11-2.76,1.22-3.77,3.04-2.3,5.98-4.73,9.05-6.99.54-.4,1.59-.53,2.24-.31,7.16,2.41,14.32,4.82,21.39,7.48,1.06.4,1.92,1.98,2.39,3.2,2.87,7.49,4.94,15.21,6.12,23.16.11.76.27,1.52.37,2.29.04.25-.02.51-.05,1.35-3.82-7.05-8.95-12.42-14.78-16.99-5.79-4.53-12.57-6.94-19.86-7.54-.07.18-.14.37-.21.55,3.29,2.25,6.72,4.33,9.83,6.8,3.07,2.43,5.81,5.26,8.58,8.1-3.33-.34-6.38-1.97-9.84-1.37,12.7,8.84,19.68,21.36,24.26,36.06.88-.87,2.07-1.67,2.74-2.77,4.66-7.64,8.01-15.69,7.09-24.91-.65-6.57-2.03-12.99-4.15-19.25-1.26-3.74-2.59-7.45-3.73-11.22-.55-1.82-1.52-2.67-3.41-3.09-3.5-.79-6.93-1.93-10.56-2.97,9.35-16.99,8.74-34.68,3.96-52.66h-.78c-.38,8.54-.73,17.09-3.51,25.35,0-2.92.25-5.86-.06-8.75-.43-4.03-1.26-8.02-1.99-12.01-.07-.38-.61-.67-.94-1.01-.42.49-1.07.91-1.22,1.47-.57,2.16-.98,4.36-1.45,6.53-2.73-2.41-5.01-4.89-7.73-6.71-2.6-1.74-5.19-3.92-9.29-4.01,3.05,3.91,4.07,8.04,4.89,12.19,1.29,6.48,2.02,13.03.66,19.6-1,4.87-3.63,8.98-6.6,12.82-1.8,2.33-4.06,4.3-6.12,6.43-.12.14-.24.28-.36.42.03-.22.06-.43.09-.65Z"/>
      <path class="cls-1" d="M848.86,180.62c-1.13-2.12-2.07-3.78-2.91-5.48-1.57-3.17-1.94-6.16.13-9.48,2.59-4.16,4.49-8.75,7.06-12.92.85-1.38,2.75-2.23,4.33-3.02,10.66-5.32,21.75-9.58,33.06-13.27,2.39-.78,4.86-1.31,7.31-1.89,3.11-.73,5.72,1.07,8.54,1.78.94.24,1.81.69,2.74.95,1.75.49,3.42.86,3.94,3.12.19.84,1.44,1.72,2.39,2.04,2,.67,4.13,1.33,6.2,1.33,1.46,0,3.08-.88,4.34-1.77,3.2-2.28,6.24-4.79,9.34-7.22.18-.14.26-.42.61-1-1.7.08-3.13.14-4.56.21-1.22.06-2.46.28-3.67.17-1.81-.15-2.16-.9-1.92-2.63.09-.62-.4-1.4-.81-1.97-.27-.37-.87-.57-1.36-.69-6.62-1.71-13.21-3.61-19.91-4.98-2.27-.46-4.96.02-7.22.78-9.17,3.11-18.32,6.31-27.33,9.85-7.62,2.99-15.01,6.57-22.56,9.74-2.08.87-2.78,2.68-3.63,4.33-2.78,5.42-4.92,11.12-5.83,17.16-.66,4.38,1.09,8.15,4.36,11.07,1.43,1.27,3.18,2.2,4.85,3.17.6.35,1.39.36,2.51.62Z"/>
      <path class="cls-1" d="M980.1,77.98c-.56-1.73-1.06-3.43-1.68-5.08-.14-.39-.68-.63-1.03-.94-.28.45-.78.89-.8,1.35-.27,6.75-2.88,12.61-6.53,18.15-.65.99-.79,2.31-1.17,3.48,1.5.37,3.07,1.22,4.49,1.02,2.72-.37,4.5-2.52,5.94-4.65,4.84-7.2,9.04-14.75,11.51-23.13,1.38-4.69.48-9.17-1.48-13.51-.13-.28-.54-.43-.82-.64-.27.39-.71.75-.79,1.18-.52,2.72-.91,5.47-1.44,8.19-.93,4.76-2.17,9.42-4.99,13.48-.22.32-.47.62-.74.89-.12.12-.32.15-.46.2Z"/>
      <path class="cls-1" d="M941.19,134.91c-2.19-.4-3.31,1.27-4.6,2.46-.79.73-1.37,1.69-2.05,2.55,1.04.17,2.09.3,3.12.52,2.14.45,4.32.8,6.41,1.45,4.93,1.53,9.89,3,14.66,4.95,1.84.75,3.36,2.57,4.71,4.17,2.36,2.8,4.45,5.82,6.71,8.71.3.39.91.54,1.37.8.22-.48.7-1,.63-1.43-.76-4.86-2.08-9.56-4.34-13.96-1.24-2.41-3.67-3.25-5.89-4.1-6.02-2.29-11.96-4.86-18.42-5.78-.76-.11-1.52-.22-2.29-.33Z"/>
    </g>
  </g>
</svg>