<?xml version="1.0" encoding="UTF-8"?>
<svg id="Layer_2" data-name="Layer 2" xmlns="http://www.w3.org/2000/svg" viewBox="0 0 667 109">
  <defs>
    <style>
      .cls-1 {
        fill: #fff;
        stroke-width: 0px;
      }
    </style>
  </defs>
  <g id="Layer_1-2" data-name="Layer 1">
    <g>
      <path class="cls-1" d="M31.65,31.19c-.78-3.02-.58-6.03.21-9.02.11-.42.33-.81.5-1.21.12,0,.24,0,.36,0,.33,1.06.63,2.14,1,3.19,1.9,5.39,4.62,10.34,8.27,14.72,2.15,2.58,5.17,4,8.22,5.28,6.92,2.89,13.75,5.96,20.21,9.78.49.29.91.71,1.31,1.12,1.31,1.34,2.55,2.76,3.92,4.02.37.34,1.2.46,1.7.3.43-.14.87-.76,1-1.26.35-1.34.48-1.5,1.78-1.15.88.23,1.65.27,2.37-.48.2-.21,1-.21,1.18,0,3.82,4.39,9.38,5.52,14.39,7.66,4.41,1.89,8.9,3.6,13.31,5.48,1.17.5,2.19,1.37,3.48,2.19-1.39.5-2.43.88-3.48,1.24-.99.34-1.98.58-2.56,1.63-.36.65-1.04.84-1.83.48-2.87-1.31-5.79-2.52-8.65-3.86-3.85-1.81-7.67-3.69-11.49-5.58-.87-.43-1.7-.95-2.5-1.51-1.29-.89-2.28-.65-2.94.75-.49,1.05-1.02,1.96-2.38,2.26-1.66.37-3.25,1.05-4.97,1.63-1.48-2.16-3.1-4.15-4.3-6.36-2.23-4.12-5.74-6.52-10-7.96-3.54-1.19-7.1-2.37-10.74-3.17-3.32-.73-6.82-.86-9.99.6-1.59.73-3.09.92-4.74.84-.42-.02-.87.03-1.28.14-2.1.58-2.69,2.67-1.19,4.26,1.22,1.29,2.85,1.7,4.52,2.01,2.1.39,4-.13,5.82-1.14.3-.16.67-.19,1.01-.27.1.12.19.24.29.36-.61.75-1.1,1.65-1.84,2.23-3.89,3.05-10.36,3.53-14.54.82-2.61-1.69-4.02-4.07-4.38-7.11-.23-1.93,1.26-4.25,3.32-5.22.32-.15.62-.36.96-.43,2.1-.41,2.6-1.86,2.73-3.77.12-1.86.53-3.7.86-5.54.17-.92.07-1.66-.74-2.27-1.83-1.39-3.61-2.85-5.46-4.22-.33-.24-.96-.32-1.35-.19-4.32,1.45-8.64,2.91-12.91,4.52-.64.24-1.16,1.2-1.44,1.93-1.73,4.52-2.98,9.18-3.69,13.98-.07.46-.16.92-.23,1.38-.02.15,0,.31.03.81,2.31-4.25,5.4-7.49,8.92-10.25,3.5-2.74,7.58-4.19,11.99-4.55.04.11.08.22.12.33-1.99,1.36-4.05,2.61-5.93,4.1-1.85,1.47-3.51,3.17-5.18,4.89,2.01-.21,3.85-1.19,5.94-.83-7.66,5.34-11.88,12.89-14.64,21.76-.53-.53-1.25-1.01-1.65-1.67C1.55,64.25-.46,59.4.09,53.83c.39-3.97,1.23-7.84,2.5-11.62.76-2.25,1.56-4.5,2.25-6.77.33-1.1.92-1.61,2.06-1.87,2.11-.47,4.18-1.16,6.37-1.79C7.63,21.53,8,10.85,10.89,0h.47c.23,5.16.44,10.32,2.12,15.3,0-1.76-.15-3.54.04-5.28.26-2.43.76-4.84,1.2-7.25.04-.23.37-.41.57-.61.25.29.65.55.73.89.34,1.3.59,2.63.87,3.94,1.65-1.46,3.03-2.95,4.67-4.05,1.57-1.05,3.13-2.37,5.61-2.42-1.84,2.36-2.45,4.85-2.95,7.36-.78,3.91-1.22,7.86-.4,11.83.61,2.94,2.19,5.42,3.99,7.74,1.09,1.4,2.45,2.59,3.69,3.88.07.08.14.17.22.25-.02-.13-.04-.26-.05-.39Z"/>
      <path class="cls-1" d="M154.73,106.71c.68-1.28,1.25-2.28,1.76-3.31.95-1.91,1.17-3.72-.08-5.72-1.56-2.51-2.71-5.28-4.26-7.8-.51-.83-1.66-1.35-2.61-1.82-6.43-3.21-13.12-5.78-19.95-8.01-1.44-.47-2.93-.79-4.41-1.14-1.88-.44-3.45.64-5.16,1.07-.56.14-1.09.42-1.66.58-1.06.3-2.06.52-2.38,1.89-.12.51-.87,1.04-1.44,1.23-1.21.41-2.49.8-3.74.8-.88,0-1.86-.53-2.62-1.07-1.93-1.38-3.77-2.89-5.64-4.36-.11-.09-.16-.25-.37-.61,1.03.05,1.89.08,2.75.12.74.04,1.48.17,2.21.1,1.09-.09,1.3-.54,1.16-1.59-.05-.37.24-.85.49-1.19.16-.22.53-.34.82-.42,4-1.03,7.97-2.18,12.01-3,1.37-.28,2.99,0,4.36.47,5.53,1.88,11.05,3.81,16.49,5.95,4.6,1.81,9.06,3.96,13.62,5.88,1.25.53,1.68,1.62,2.19,2.61,1.68,3.27,2.97,6.71,3.52,10.35.4,2.65-.66,4.92-2.63,6.68-.86.77-1.92,1.33-2.93,1.91-.36.21-.84.22-1.51.38Z"/>
      <path class="cls-1" d="M75.53,44.77c.34-1.04.64-2.07,1.02-3.07.09-.23.41-.38.62-.57.17.27.47.54.48.82.16,4.07,1.74,7.61,3.94,10.95.39.6.48,1.4.71,2.1-.91.23-1.85.73-2.71.62-1.64-.22-2.72-1.52-3.58-2.81-2.92-4.34-5.45-8.9-6.95-13.96-.84-2.83-.29-5.54.9-8.15.08-.17.33-.26.5-.39.16.24.43.45.48.71.31,1.64.55,3.3.87,4.94.56,2.87,1.31,5.68,3.01,8.14.13.19.28.37.44.54.07.07.19.09.28.12Z"/>
      <path class="cls-1" d="M99.01,79.12c1.32-.24,2,.77,2.78,1.48.48.44.83,1.02,1.24,1.54-.63.1-1.26.18-1.88.31-1.29.27-2.61.48-3.87.87-2.97.93-5.97,1.81-8.85,2.99-1.11.45-2.03,1.55-2.84,2.51-1.42,1.69-2.69,3.51-4.05,5.26-.18.23-.55.32-.83.48-.13-.29-.42-.6-.38-.86.46-2.93,1.26-5.77,2.62-8.42.75-1.45,2.21-1.96,3.56-2.48,3.63-1.38,7.22-2.93,11.12-3.49.46-.07.92-.13,1.38-.2Z"/>
    </g>
    <g>
      <path class="cls-1" d="M635.35,33.47c.78-3.02.58-6.03-.21-9.02-.11-.42-.33-.81-.5-1.21-.12,0-.24,0-.36,0-.33,1.06-.63,2.14-1,3.19-1.9,5.39-4.62,10.34-8.27,14.72-2.15,2.58-5.17,4-8.22,5.28-6.92,2.89-13.75,5.96-20.21,9.78-.49.29-.91.71-1.31,1.12-1.31,1.34-2.55,2.76-3.92,4.02-.37.34-1.2.46-1.7.3-.43-.14-.87-.76-1-1.26-.35-1.34-.48-1.5-1.78-1.15-.88.23-1.65.27-2.37-.48-.2-.21-1-.21-1.18,0-3.82,4.39-9.38,5.52-14.39,7.66-4.41,1.89-8.9,3.6-13.31,5.48-1.17.5-2.19,1.37-3.48,2.19,1.39.5,2.43.88,3.48,1.24.99.34,1.98.58,2.56,1.63.36.65,1.04.84,1.83.48,2.87-1.31,5.79-2.52,8.65-3.86,3.85-1.81,7.67-3.69,11.49-5.58.87-.43,1.7-.95,2.5-1.51,1.29-.89,2.28-.65,2.94.75.49,1.05,1.02,1.96,2.38,2.26,1.66.37,3.25,1.05,4.97,1.63,1.48-2.16,3.1-4.15,4.3-6.36,2.23-4.12,5.74-6.52,10-7.96,3.54-1.19,7.1-2.37,10.74-3.17,3.32-.73,6.82-.86,9.99.6,1.59.73,3.09.92,4.74.84.42-.02.87.03,1.28.14,2.1.58,2.69,2.67,1.19,4.26-1.22,1.29-2.85,1.7-4.52,2.01-2.1.39-4-.13-5.82-1.14-.3-.16-.67-.19-1.01-.27-.1.12-.19.24-.29.36.61.75,1.1,1.65,1.84,2.23,3.89,3.05,10.36,3.53,14.54.82,2.61-1.69,4.02-4.07,4.38-7.11.23-1.93-1.26-4.25-3.32-5.22-.32-.15-.62-.36-.96-.43-2.1-.41-2.6-1.86-2.73-3.77-.12-1.86-.53-3.7-.86-5.54-.17-.92-.07-1.66.74-2.27,1.83-1.39,3.61-2.85,5.46-4.22.33-.24.96-.32,1.35-.19,4.32,1.45,8.64,2.91,12.91,4.52.64.24,1.16,1.2,1.44,1.93,1.73,4.52,2.98,9.18,3.69,13.98.07.46.16.92.23,1.38.02.15,0,.31-.03.81-2.31-4.25-5.4-7.49-8.92-10.25-3.5-2.74-7.58-4.19-11.99-4.55-.04.11-.08.22-.12.33,1.99,1.36,4.05,2.61,5.93,4.1,1.85,1.47,3.51,3.17,5.18,4.89-2.01-.21-3.85-1.19-5.94-.83,7.66,5.34,11.88,12.89,14.64,21.76.53-.53,1.25-1.01,1.65-1.67,2.81-4.61,4.83-9.47,4.28-15.04-.39-3.97-1.23-7.84-2.5-11.62-.76-2.25-1.56-4.5-2.25-6.77-.33-1.1-.92-1.61-2.06-1.87-2.11-.47-4.18-1.16-6.37-1.79,5.65-10.25,5.28-20.93,2.39-31.78h-.47c-.23,5.16-.44,10.32-2.12,15.3,0-1.76.15-3.54-.04-5.28-.26-2.43-.76-4.84-1.2-7.25-.04-.23-.37-.41-.57-.61-.25.29-.65.55-.73.89-.34,1.3-.59,2.63-.87,3.94-1.65-1.46-3.03-2.95-4.67-4.05-1.57-1.05-3.13-2.37-5.61-2.42,1.84,2.36,2.45,4.85,2.95,7.36.78,3.91,1.22,7.86.4,11.83-.61,2.94-2.19,5.42-3.99,7.74-1.09,1.4-2.45,2.59-3.69,3.88-.07.08-.14.17-.22.25.02-.13.04-.26.05-.39Z"/>
      <path class="cls-1" d="M512.27,109c-.68-1.28-1.25-2.28-1.76-3.31-.95-1.91-1.17-3.72.08-5.72,1.56-2.51,2.71-5.28,4.26-7.8.51-.83,1.66-1.35,2.61-1.82,6.43-3.21,13.12-5.78,19.95-8.01,1.44-.47,2.93-.79,4.41-1.14,1.88-.44,3.45.64,5.16,1.07.56.14,1.09.42,1.66.58,1.06.3,2.06.52,2.38,1.89.12.51.87,1.04,1.44,1.23,1.21.41,2.49.8,3.74.8.88,0,1.86-.53,2.62-1.07,1.93-1.38,3.77-2.89,5.64-4.36.11-.09.16-.25.37-.61-1.03.05-1.89.08-2.75.12-.74.04-1.48.17-2.21.1-1.09-.09-1.3-.54-1.16-1.59.05-.37-.24-.85-.49-1.19-.16-.22-.53-.34-.82-.42-4-1.03-7.97-2.18-12.01-3-1.37-.28-2.99,0-4.36.47-5.53,1.88-11.05,3.81-16.49,5.95-4.6,1.81-9.06,3.96-13.62,5.88-1.25.53-1.68,1.62-2.19,2.61-1.68,3.27-2.97,6.71-3.52,10.35-.4,2.65.66,4.92,2.63,6.68.86.77,1.92,1.33,2.93,1.91.36.21.84.22,1.51.38Z"/>
      <path class="cls-1" d="M591.47,47.06c-.34-1.04-.64-2.07-1.02-3.07-.09-.23-.41-.38-.62-.57-.17.27-.47.54-.48.82-.16,4.07-1.74,7.61-3.94,10.95-.39.6-.48,1.4-.71,2.1.91.23,1.85.73,2.71.62,1.64-.22,2.72-1.52,3.58-2.81,2.92-4.34,5.45-8.9,6.95-13.96.84-2.83.29-5.54-.9-8.15-.08-.17-.33-.26-.5-.39-.16.24-.43.45-.48.71-.31,1.64-.55,3.3-.87,4.94-.56,2.87-1.31,5.68-3.01,8.14-.13.19-.28.37-.44.54-.07.07-.19.09-.28.12Z"/>
      <path class="cls-1" d="M567.99,81.41c-1.32-.24-2,.77-2.78,1.48-.48.44-.83,1.02-1.24,1.54.63.1,1.26.18,1.88.31,1.29.27,2.61.48,3.87.87,2.97.93,5.97,1.81,8.85,2.99,1.11.45,2.03,1.55,2.84,2.51,1.42,1.69,2.69,3.51,4.05,5.26.18.23.55.32.83.48.13-.29.42-.6.38-.86-.46-2.93-1.26-5.77-2.62-8.42-.75-1.45-2.21-1.96-3.56-2.48-3.63-1.38-7.22-2.93-11.12-3.49-.46-.07-.92-.13-1.38-.2Z"/>
    </g>
  </g>
</svg>