<?xml version="1.0" encoding="UTF-8"?>
<svg id="Layer_2" data-name="Layer 2" xmlns="http://www.w3.org/2000/svg" viewBox="0 0 1995 1104">
  <defs>
    <style>
      .cls-1 {
        fill: #fff;
        stroke-width: 0px;
      }
    </style>
  </defs>
  <g id="Layer_1-2" data-name="Layer 1">
    <path class="cls-1" d="M1995,0v1104c-37.04-2.67-80.35-5.16-127.99-7.49-3.71-.18-7.4-7.53-11.16-7.71-3.68-.18-7.42,6.82-11.15,6.65-15.98-.74-32.39-1.47-49.16-2.18-4.92-.21-39.9-22.73-39.9-22.73,0,0,16.4,21.76,12.04,21.58-44-1.77-90.15-3.42-137.31-4.95-4.64-.15-12.98-12.07-12.98-12.07,0,0-8.36,11.38-12.07,11.26-47.82-1.51-96.45-2.9-144.75-4.18-4.54-.12-17-25.04-17-25.04,0,0-6.48,24.43-11.42,24.3-23.28-.6-46.44-1.17-69.33-1.72-2.79-.07-9.26-8.88-9.26-8.88,0,0-4.04,8.56-6.5,8.51-8.81-.21-17.57-.41-26.28-.61-2.17-.05-2.79-36.2-2.79-36.2,0,0-9.26,35.92-12.03,35.86-45.22-1.02-88.9-1.93-129.97-2.75-13.26-.26-37.09-18.51-37.09-18.51,0,0-23.09,17.36-33.37,17.17-34.37-.63-66-1.18-94.05-1.65-7.3-.12-13.93-12.16-13.93-12.16l-13.92,4.56-12.99-7.92s-22.68,14.5-32.48,14.35c-38.25-.58-60.31-.86-60.31-.86l-14.85-13.49,3.25,8.83s-26.77,4.29-33.4,4.23c-29.54-.26-46.09-.36-46.09-.36l-12.37-5.69s-4.96,5.99-7.44,6.03c-33.15.59-66.4,1.29-99.75,2.12-8.49.21-20.4-18.04-20.4-18.04,0,0-21.49,19.14-29.69,19.37-40.58,1.15-81.33,2.48-122.26,3.98-2.16.08-24.82-1.6-24.82-1.6l-5.57-13.46-8.58-12.1-19.03,21.57-6.49-17.69s-6.03,21.57-8.82,21.68c-19.47.79-43.06,7.11-62.56,7.97-20.44.9-40.89,1.85-61.35,2.83-4.56.22-5.62-5.86-5.62-5.86,0,0-13.4,6.79-16.07,6.92-9.07.45-18.14.91-27.21,1.37-7.84.4-24.15-7.69-24.15-7.69,0,0-10.11,9.48-15.46,9.77-20.81,1.12-41.64,2.29-62.47,3.49-6.18.36-4.34-11.13-4.34-11.13l-24.13-13.39s-7.74,26.66-10.53,26.83c-9.26.56-18.52,1.13-27.79,1.7-1.74.11-.03-19.71-.03-19.71,0,0-22.61,21.13-25.09,21.29-18.24,1.16-36.49,2.36-54.75,3.58V0c10.59.71,21.19,1.41,31.77,2.1.85.06,2.54.17,2.54.17l19.55,29.11L91.04,5.85s1.93.12,2.89.18c21.63,1.32,43.24,2.6,64.85,3.84,4.11.23,8.21,4.39,12.31,4.62,3.31.19,6.64-3.55,9.95-3.36,8.02.45,16.03.89,24.05,1.32,1.45.08,4.35.24,4.35.24l14.23,17.63,26.6,18.26-2.53-33.6s.41-.25.66-.24c4.8.25,9.6.49,14.4.73.44.02,1.55,1.23,1.55,1.23,0,0,1.63-1.07,2.55-1.02.72.04,2.4,3.61,2.4,3.61,0,0,2.46-3.37,3.81-3.3,3.99.2,7.98.4,11.97.59.83.04,4.01,3.47,4.01,3.47,0,0,.63-3.24,1.71-3.19,3.66.18,7.32.35,10.98.53.67.03,1.85,5.7,1.85,5.7,0,0,3.05-5.47,4.49-5.4,8.81.42,17.63.83,26.44,1.23,3.5.16,9.28,12.68,9.28,12.68,0,0,7.81-11.91,11.12-11.76,9.7.43,19.4.85,29.1,1.27,2.28.1,4.94,7.45,4.94,7.45l4.95-3.04,8.04,6.09,11.75-1.83s6.71-7.16,9.32-7.06c14.79.59,29.58,1.16,44.36,1.71,3.73.14,12.05,13.11,12.05,13.11l21.34-11.9,13.92,5.51s13.29-4.59,20.41-4.35c9.13.3,18.26.59,27.39.87,4.12.13,12.36,34.07,12.36,34.07,0,0,9.07-33.42,13.61-33.29,26.62.77,53.22,1.48,79.8,2.11,2.37.06,6.18,4.1,6.18,4.1,0,0,2.79-3.89,3.72-3.86,31.98.74,63.93,1.37,95.86,1.9,1.13.02,24.15,12.46,24.15,12.46,0,0,26.38-11.71,27.85-11.69,34.67.45,69.31.78,103.91.99.55,0,1.78.06,1.78.06l31.01,5.32,52.97-5.08s2.26-.04,3.33-.04c23.52,0,47.03-.07,70.52-.19.73,0,7.42,21.6,7.42,21.6,0,0,11.16-21.71,12.06-21.71,39.79-.26,79.54-.69,119.25-1.29.96-.01,3.11.35,3.11.35l32.76,20.52,8.66-18.26s28.58-3.9,37.11-4.08c29.05-.61,58.08-1.3,87.08-2.09,7.84-.21,22.26,10.74,22.26,10.74,0,0,11.97-11.71,17.33-11.87,22.68-.68,45.36-1.42,68.01-2.22,10.71-.38,32.19,20.67,32.19,20.67l-7.42-13.88s38.8-9.16,45.79-9.44c37.15-1.5,74.27-3.14,111.35-4.94,5.78-.28,14.84,14.39,14.84,14.39,0,0,14.84-15.86,21.01-16.18,55.75-2.86,111.41-6.06,166.99-9.62,2.82-.18,5.29,4.41,5.29,4.41l-2.76,29.3,19.49-34.69s52.97-4.02,54.67-4.14c9.66-.67,19.31-1.36,28.97-2.06Z"/>
  </g>
</svg>