<?xml version="1.0" encoding="UTF-8"?>
<svg id="Layer_2" data-name="Layer 2" xmlns="http://www.w3.org/2000/svg" viewBox="0 0 466.65 261.33">
  <defs>
    <style>
      .cls-1 {
        fill: #fff;
        stroke-width: 0px;
      }
    </style>
  </defs>
  <g id="Layer_2-2" data-name="Layer 2">
    <path class="cls-1" d="M455.62,54.18c-.12,3.15.63,6.47,2.89,8.67,1.98,1.93,5.28,2.52,8.14,2.18v20.55c-1.36,1.95-2.58,3.93-3.42,5.99-2.35,5.74-2.61,11.87-.81,17.8.83,2.73,2.38,5.18,4.23,7.23v.92l-9.15,9.15,9.15,9.15v.93c-1.85,2.05-3.4,4.49-4.23,7.22-1.8,5.93-1.54,12.06.81,17.8.84,2.06,2.06,4.04,3.42,5.98v20.56c-2.86-.34-6.16.26-8.14,2.18-2.26,2.2-3.01,5.51-2.89,8.66.19,4.72,1.85,8.31,4.03,10.59,1.92,2,4.35,3.45,7,4.32v27.69c0,10.81-8.77,19.58-19.59,19.58H19.59c-10.82,0-19.59-8.77-19.59-19.58v-27.69c2.65-.87,5.08-2.32,7-4.32,2.18-2.28,3.84-5.87,4.02-10.59.13-3.15-.62-6.46-2.88-8.66-1.98-1.92-5.28-2.52-8.14-2.18v-20.57c1.36-1.94,2.58-3.92,3.42-5.97,2.35-5.74,2.61-11.87.8-17.8-.82-2.73-2.38-5.17-4.22-7.22v-.93l9.15-9.15L0,117.52v-.93c1.84-2.05,3.4-4.49,4.22-7.22,1.81-5.93,1.55-12.07-.8-17.8-.84-2.05-2.06-4.03-3.42-5.97v-20.56c2.86.32,6.16-.28,8.14-2.19,2.26-2.2,3.01-5.52,2.88-8.67-.18-4.72-1.84-8.31-4.02-10.58-1.92-2.01-4.35-3.45-7-4.32v-19.69C0,8.77,8.77,0,19.59,0h427.47c10.82,0,19.59,8.77,19.59,19.59v19.69c-2.65.87-5.09,2.32-7.01,4.32-2.18,2.28-3.84,5.87-4.02,10.58Z"/>
  </g>
</svg>